<mxfile host="app.diagrams.net" modified="2024-07-17T07:41:49.749Z" agent="Mozilla/5.0 (X11; Ubuntu; Linux x86_64; rv:128.0) Gecko/20100101 Firefox/128.0" etag="knVvPePtTTTAHPfZj-it" version="24.5.3" type="github">
  <diagram name="Page-1" id="0783ab3e-0a74-02c8-0abd-f7b4e66b4bec">
    <mxGraphModel dx="733" dy="356" grid="1" gridSize="10" guides="1" tooltips="1" connect="1" arrows="1" fold="1" page="1" pageScale="1" pageWidth="850" pageHeight="1100" background="none" math="0" shadow="0">
      <root>
        <mxCell id="0" />
        <mxCell id="1" parent="0" />
        <mxCell id="1c1d494c118603dd-1" value="Class" style="swimlane;html=1;childLayout=stackLayout;startSize=20;rounded=0;shadow=0;comic=0;labelBackgroundColor=none;strokeWidth=1;fontFamily=Verdana;fontSize=12;align=center;verticalAlign=top;" parent="1" vertex="1">
          <mxGeometry x="40" y="20" width="750" height="990" as="geometry" />
        </mxCell>
        <mxCell id="1c1d494c118603dd-2" value="Entitas" style="swimlane;html=1;startSize=20;" parent="1c1d494c118603dd-1" vertex="1">
          <mxGeometry y="20" width="250" height="970" as="geometry" />
        </mxCell>
        <mxCell id="1c1d494c118603dd-3" value="Base" style="swimlane;html=1;startSize=20;" parent="1c1d494c118603dd-1" vertex="1">
          <mxGeometry x="250" y="20" width="250" height="970" as="geometry" />
        </mxCell>
        <mxCell id="5xHGKNypchPhY560sDNg-16" value="«interface»" style="text;whiteSpace=wrap;html=1;fontFamily=Georgia;fontSize=26;align=center;" vertex="1" parent="1c1d494c118603dd-3">
          <mxGeometry x="35" y="30" width="180" height="50" as="geometry" />
        </mxCell>
        <mxCell id="5xHGKNypchPhY560sDNg-18" value="&lt;font style=&quot;font-size: 13px;&quot;&gt;Makhluk&lt;/font&gt;" style="swimlane;fontStyle=1;align=center;verticalAlign=top;childLayout=stackLayout;horizontal=1;startSize=26;horizontalStack=0;resizeParent=1;resizeParentMax=0;resizeLast=0;collapsible=1;marginBottom=0;whiteSpace=wrap;html=1;swimlaneFillColor=default;" vertex="1" parent="1c1d494c118603dd-3">
          <mxGeometry x="-80" y="220" width="160" height="140" as="geometry">
            <mxRectangle x="-80" y="210" width="90" height="30" as="alternateBounds" />
          </mxGeometry>
        </mxCell>
        <mxCell id="5xHGKNypchPhY560sDNg-19" value="&lt;div align=&quot;center&quot;&gt;&lt;b&gt;field&lt;/b&gt;&lt;/div&gt;&lt;div align=&quot;justify&quot;&gt;Tanggal lahir, Alamat, Umur&lt;/div&gt;&lt;div&gt;&lt;div align=&quot;justify&quot;&gt;Jenis Kelamin, Hobi, Telp, Status &lt;br&gt;&lt;/div&gt;&lt;br&gt;&lt;/div&gt;&lt;br&gt;&lt;div&gt;&lt;br&gt;&lt;/div&gt;" style="text;align=left;verticalAlign=top;spacingLeft=4;spacingRight=4;overflow=hidden;rotatable=0;points=[[0,0.5],[1,0.5]];portConstraint=eastwest;whiteSpace=wrap;html=1;" vertex="1" parent="5xHGKNypchPhY560sDNg-18">
          <mxGeometry y="26" width="160" height="64" as="geometry" />
        </mxCell>
        <mxCell id="5xHGKNypchPhY560sDNg-20" value="" style="line;strokeWidth=1;fillColor=none;align=left;verticalAlign=middle;spacingTop=-1;spacingLeft=3;spacingRight=3;rotatable=0;labelPosition=right;points=[];portConstraint=eastwest;strokeColor=inherit;" vertex="1" parent="5xHGKNypchPhY560sDNg-18">
          <mxGeometry y="90" width="160" height="10" as="geometry" />
        </mxCell>
        <mxCell id="5xHGKNypchPhY560sDNg-21" value="&lt;div align=&quot;center&quot;&gt;&lt;b&gt;Method&lt;/b&gt;&lt;br&gt;&lt;/div&gt;&lt;div&gt;Hitung umur, Tampilkan info&lt;br&gt;&lt;/div&gt;" style="text;strokeColor=none;fillColor=none;align=left;verticalAlign=top;spacingLeft=4;spacingRight=4;overflow=hidden;rotatable=0;points=[[0,0.5],[1,0.5]];portConstraint=eastwest;whiteSpace=wrap;html=1;" vertex="1" parent="5xHGKNypchPhY560sDNg-18">
          <mxGeometry y="100" width="160" height="40" as="geometry" />
        </mxCell>
        <mxCell id="5xHGKNypchPhY560sDNg-27" value="«abstract»" style="text;whiteSpace=wrap;html=1;fontFamily=Georgia;fontSize=26;align=center;shadow=0;rounded=0;fillColor=default;verticalAlign=middle;" vertex="1" parent="1c1d494c118603dd-3">
          <mxGeometry x="-60" y="189" width="120" height="30" as="geometry" />
        </mxCell>
        <mxCell id="5xHGKNypchPhY560sDNg-33" style="edgeStyle=orthogonalEdgeStyle;rounded=0;orthogonalLoop=1;jettySize=auto;html=1;dashed=1;startArrow=block;startFill=1;endArrow=block;endFill=1;strokeWidth=1;curved=0;shadow=0;flowAnimation=0;jumpStyle=none;sourcePerimeterSpacing=0;targetPerimeterSpacing=0;endSize=15;startSize=15;" edge="1" parent="1c1d494c118603dd-3">
          <mxGeometry relative="1" as="geometry">
            <mxPoint x="170" y="289.89" as="sourcePoint" />
            <mxPoint x="80" y="289.89" as="targetPoint" />
            <Array as="points" />
          </mxGeometry>
        </mxCell>
        <mxCell id="1c1d494c118603dd-4" value="Objek" style="swimlane;html=1;startSize=20;" parent="1c1d494c118603dd-1" vertex="1">
          <mxGeometry x="500" y="20" width="250" height="970" as="geometry" />
        </mxCell>
        <mxCell id="5xHGKNypchPhY560sDNg-23" value="Benda" style="swimlane;fontStyle=1;align=center;verticalAlign=top;childLayout=stackLayout;horizontal=1;startSize=26;horizontalStack=0;resizeParent=1;resizeParentMax=0;resizeLast=0;collapsible=1;marginBottom=0;whiteSpace=wrap;html=1;swimlaneFillColor=default;" vertex="1" parent="1c1d494c118603dd-4">
          <mxGeometry x="-80" y="220" width="160" height="140" as="geometry">
            <mxRectangle x="-80" y="220" width="90" height="30" as="alternateBounds" />
          </mxGeometry>
        </mxCell>
        <mxCell id="5xHGKNypchPhY560sDNg-24" value="&lt;div align=&quot;center&quot;&gt;&lt;b&gt;field&lt;/b&gt;&lt;/div&gt;&lt;div align=&quot;justify&quot;&gt;Jenis, Deskripsi, Kondisi, Status, Lokasi&lt;br&gt;&lt;/div&gt;&lt;div&gt;&lt;br&gt;&lt;/div&gt;&lt;br&gt;&lt;div&gt;&lt;br&gt;&lt;/div&gt;" style="text;align=left;verticalAlign=top;spacingLeft=4;spacingRight=4;overflow=hidden;rotatable=0;points=[[0,0.5],[1,0.5]];portConstraint=eastwest;whiteSpace=wrap;html=1;" vertex="1" parent="5xHGKNypchPhY560sDNg-23">
          <mxGeometry y="26" width="160" height="64" as="geometry" />
        </mxCell>
        <mxCell id="5xHGKNypchPhY560sDNg-25" value="" style="line;strokeWidth=1;fillColor=none;align=left;verticalAlign=middle;spacingTop=-1;spacingLeft=3;spacingRight=3;rotatable=0;labelPosition=right;points=[];portConstraint=eastwest;strokeColor=inherit;" vertex="1" parent="5xHGKNypchPhY560sDNg-23">
          <mxGeometry y="90" width="160" height="10" as="geometry" />
        </mxCell>
        <mxCell id="5xHGKNypchPhY560sDNg-26" value="&lt;div align=&quot;center&quot;&gt;&lt;b&gt;Method&lt;/b&gt;&lt;br&gt;&lt;/div&gt;&lt;div&gt;Hitung umur, Tampilkan info&lt;br&gt;&lt;/div&gt;" style="text;strokeColor=none;fillColor=none;align=left;verticalAlign=top;spacingLeft=4;spacingRight=4;overflow=hidden;rotatable=0;points=[[0,0.5],[1,0.5]];portConstraint=eastwest;whiteSpace=wrap;html=1;" vertex="1" parent="5xHGKNypchPhY560sDNg-23">
          <mxGeometry y="100" width="160" height="40" as="geometry" />
        </mxCell>
        <mxCell id="5xHGKNypchPhY560sDNg-29" value="«abstract»" style="text;whiteSpace=wrap;html=1;fontFamily=Georgia;fontSize=26;align=center;shadow=0;rounded=0;fillColor=default;verticalAlign=middle;" vertex="1" parent="1c1d494c118603dd-4">
          <mxGeometry x="-60" y="189" width="120" height="30" as="geometry" />
        </mxCell>
        <mxCell id="5xHGKNypchPhY560sDNg-30" style="edgeStyle=orthogonalEdgeStyle;rounded=0;orthogonalLoop=1;jettySize=auto;html=1;exitX=0.5;exitY=1;exitDx=0;exitDy=0;dashed=1;startArrow=none;startFill=0;endArrow=none;endFill=0;strokeWidth=1;curved=0;shadow=0;flowAnimation=0;jumpStyle=none;sourcePerimeterSpacing=0;targetPerimeterSpacing=0;endSize=15;startSize=6;" edge="1" parent="1" source="5xHGKNypchPhY560sDNg-12">
          <mxGeometry relative="1" as="geometry">
            <mxPoint x="415" y="330" as="targetPoint" />
          </mxGeometry>
        </mxCell>
        <mxCell id="5xHGKNypchPhY560sDNg-12" value="&lt;b&gt;Indetitas&lt;/b&gt;" style="swimlane;fontStyle=1;align=center;verticalAlign=top;childLayout=stackLayout;horizontal=1;startSize=26;horizontalStack=0;resizeParent=1;resizeParentMax=0;resizeLast=0;collapsible=1;marginBottom=0;whiteSpace=wrap;html=1;" vertex="1" parent="1">
          <mxGeometry x="350" y="111" width="130" height="86" as="geometry" />
        </mxCell>
        <mxCell id="5xHGKNypchPhY560sDNg-13" value="field: Nama " style="text;strokeColor=none;fillColor=none;align=left;verticalAlign=top;spacingLeft=4;spacingRight=4;overflow=hidden;rotatable=0;points=[[0,0.5],[1,0.5]];portConstraint=eastwest;whiteSpace=wrap;html=1;" vertex="1" parent="5xHGKNypchPhY560sDNg-12">
          <mxGeometry y="26" width="130" height="26" as="geometry" />
        </mxCell>
        <mxCell id="5xHGKNypchPhY560sDNg-14" value="" style="line;strokeWidth=1;fillColor=none;align=left;verticalAlign=middle;spacingTop=-1;spacingLeft=3;spacingRight=3;rotatable=0;labelPosition=right;points=[];portConstraint=eastwest;strokeColor=inherit;" vertex="1" parent="5xHGKNypchPhY560sDNg-12">
          <mxGeometry y="52" width="130" height="8" as="geometry" />
        </mxCell>
        <mxCell id="5xHGKNypchPhY560sDNg-15" value="method: Tampilkan" style="text;strokeColor=none;fillColor=none;align=left;verticalAlign=top;spacingLeft=4;spacingRight=4;overflow=hidden;rotatable=0;points=[[0,0.5],[1,0.5]];portConstraint=eastwest;whiteSpace=wrap;html=1;" vertex="1" parent="5xHGKNypchPhY560sDNg-12">
          <mxGeometry y="60" width="130" height="26" as="geometry" />
        </mxCell>
      </root>
    </mxGraphModel>
  </diagram>
</mxfile>
